<?xml version="1.0" standalone="no"?>
<svg xmlns:xlink="http://www.w3.org/1999/xlink" id="wave" style="transform:rotate(0deg); transition: 0.3s" viewBox="0 0 1440 130" version="1.1" xmlns="http://www.w3.org/2000/svg"><defs><linearGradient id="sw-gradient-0" x1="0" x2="0" y1="1" y2="0"><stop stop-color="rgba(255, 122, 0, 1)" offset="0%"/><stop stop-color="rgba(255, 122, 0, 1)" offset="100%"/></linearGradient></defs><path style="transform:translate(0, 0px); opacity:1" fill="url(#sw-gradient-0)" d="M0,52L40,47.7C80,43,160,35,240,26C320,17,400,9,480,4.3C560,0,640,0,720,6.5C800,13,880,26,960,39C1040,52,1120,65,1200,60.7C1280,56,1360,35,1440,28.2C1520,22,1600,30,1680,30.3C1760,30,1840,22,1920,32.5C2000,43,2080,74,2160,91C2240,108,2320,113,2400,106.2C2480,100,2560,82,2640,65C2720,48,2800,30,2880,26C2960,22,3040,30,3120,32.5C3200,35,3280,30,3360,43.3C3440,56,3520,87,3600,88.8C3680,91,3760,65,3840,47.7C3920,30,4000,22,4080,23.8C4160,26,4240,39,4320,56.3C4400,74,4480,95,4560,88.8C4640,82,4720,48,4800,41.2C4880,35,4960,56,5040,54.2C5120,52,5200,26,5280,30.3C5360,35,5440,69,5520,84.5C5600,100,5680,95,5720,93.2L5760,91L5760,130L5720,130C5680,130,5600,130,5520,130C5440,130,5360,130,5280,130C5200,130,5120,130,5040,130C4960,130,4880,130,4800,130C4720,130,4640,130,4560,130C4480,130,4400,130,4320,130C4240,130,4160,130,4080,130C4000,130,3920,130,3840,130C3760,130,3680,130,3600,130C3520,130,3440,130,3360,130C3280,130,3200,130,3120,130C3040,130,2960,130,2880,130C2800,130,2720,130,2640,130C2560,130,2480,130,2400,130C2320,130,2240,130,2160,130C2080,130,2000,130,1920,130C1840,130,1760,130,1680,130C1600,130,1520,130,1440,130C1360,130,1280,130,1200,130C1120,130,1040,130,960,130C880,130,800,130,720,130C640,130,560,130,480,130C400,130,320,130,240,130C160,130,80,130,40,130L0,130Z"/></svg>